<svg width="33" height="29" viewBox="0 0 33 29" fill="none" xmlns="http://www.w3.org/2000/svg">
<path d="M6.424 5.15L5.96585 2.4H4.32135C4.07605 1.454 3.22245 0.75 2.2 0.75C0.9867 0.75 0 1.7367 0 2.95C0 4.1633 0.9867 5.15 2.2 5.15C3.22245 5.15 4.07605 4.446 4.3219 3.5H5.0336L5.3086 5.15H5.2877L8.13175 19.4588C6.776 19.5622 5.64685 20.6061 5.51375 21.9195C5.43565 22.6923 5.68975 23.4661 6.21115 24.0414C6.7331 24.6184 7.4767 24.95 8.25 24.95H9.35C9.35 26.77 10.8301 28.25 12.65 28.25C14.47 28.25 15.95 26.77 15.95 24.95H22C22 26.77 23.4801 28.25 25.3 28.25C27.12 28.25 28.6 26.77 28.6 24.95H30.8C31.1042 24.95 31.35 24.7042 31.35 24.4C31.35 24.0958 31.1042 23.85 30.8 23.85H28.4075C27.9532 22.5702 26.7339 21.65 25.3 21.65C23.8661 21.65 22.6468 22.5702 22.1925 23.85H15.7575C15.3032 22.5702 14.0838 21.65 12.65 21.65C11.2162 21.65 9.9968 22.5702 9.5425 23.85H8.25C7.7869 23.85 7.3414 23.6509 7.0268 23.3039C6.70945 22.9524 6.5604 22.5003 6.60825 22.0301C6.69185 21.2001 7.45855 20.5506 8.3534 20.5506H8.78845C8.79615 20.5506 8.8022 20.5506 8.8099 20.5506H30.2566C31.7697 20.55 33 19.3197 33 17.8071V5.15H6.424ZM2.2 4.05C1.59335 4.05 1.1 3.55665 1.1 2.95C1.1 2.34335 1.59335 1.85 2.2 1.85C2.80665 1.85 3.3 2.34335 3.3 2.95C3.3 3.55665 2.80665 4.05 2.2 4.05Z" fill="#FFEC3F"/>
</svg>
